<?xml version="1.0" encoding="utf-8"?>
<!-- Generator: Adobe Illustrator 19.0.0, SVG Export Plug-In . SVG Version: 6.00 Build 0)  -->
<svg version="1.1" id="图层_1" xmlns="http://www.w3.org/2000/svg" x="0px" y="0px"
     viewBox="-899 901 200 200" style="enable-background:new -899 901 200 200;" xml:space="preserve">
<style type="text/css">
	.st0{fill:#1575E8;}
</style>
    <path class="st0" d="M-715.4,921.9h-40.9v-11.8H-769v11.8h-59.1v-11.8h-12.7v11.8h-41.8c-3.6,0-6.4,2.7-6.4,6.4v157.3
	c0,3.6,2.7,6.4,6.4,6.4h168.2c3.6,0,6.4-2.7,6.4-6.4V928.3C-709,924.6-711.7,921.9-715.4,921.9L-715.4,921.9z M-840.8,934.6v11.8
	h12.7v-11.8h60v11.8h12.7v-11.8h34.5v40h-155.5v-40H-840.8z M-876.3,1079.2v-91.8h155.5v91.8H-876.3z"/>
    <path class="st0" d="M-788.8,994.3c-13.4,0-24.3,10.3-24.3,22.9c0,8.7,5.2,16.3,12.9,20.2c-15.9,4.6-27.5,18.6-27.5,35.1
	c0,1.2,1,2.2,2.3,2.2s2.3-1,2.3-2.2c0-17.8,15.4-32.3,34.1-32.4c0.3,0,0.5,0,0.7,0c13.1-0.3,23.7-10.4,23.7-22.9
	C-764.5,1004.6-775.4,994.3-788.8,994.3L-788.8,994.3z M-788.8,1035.8c-10.8,0-19.7-8.3-19.7-18.5c0-10.2,8.8-18.5,19.7-18.5
	c10.8,0,19.7,8.3,19.7,18.5C-769.1,1027.4-777.9,1035.8-788.8,1035.8L-788.8,1035.8z M-761.2,1046.6c-0.9-0.9-2.4-0.9-3.3,0
	c-0.9,0.9-0.9,2.2,0,3.1c6.5,6.1,10,14.2,10,22.8c0,1.2,1,2.2,2.3,2.2c1.3,0,2.3-1,2.3-2.2C-749.8,1062.7-753.9,1053.5-761.2,1046.6
	L-761.2,1046.6z M-813.3,1036.3C-813.3,1036.3-813.3,1036.3-813.3,1036.3C-813.3,1036.3-813.3,1036.3-813.3,1036.3
	c0-1.2-1-2.2-2.3-2.2c-8.4,0-15.3-6.9-15.3-15.4c0-8.5,6.8-15.4,15.3-15.4c1.3,0,2.3-1,2.3-2.2c0-1.2-1-2.2-2.3-2.2
	c-11,0-19.9,8.9-19.9,19.7c0,7.2,4,13.6,9.8,17c-12.5,4.2-21.6,16-21.6,29.8c0,1.2,1,2.2,2.3,2.2c1.3,0,2.3-1,2.3-2.2
	c0-14.9,12.1-27.1,27-27.1C-814.4,1038.5-813.3,1037.5-813.3,1036.3L-813.3,1036.3z"/>
</svg>
